<?xml version="1.0" encoding="UTF-8"?><svg id="Layer_1" xmlns="http://www.w3.org/2000/svg" viewBox="0 0 601 601"><defs><style>.cls-1{fill:#231f20;}</style></defs><path class="cls-1" d="M513.43,88.47C456.62,31.42,381,0,300.5,0S144.77,31.26,88.01,88.01C31.26,144.77,0,220.23,0,300.5c0,119.32,70.64,227.39,179.95,275.32l.31.14,26.5-26.28-.73-.28c-102.71-39-171.71-139.02-171.71-248.9,0-146.76,119.4-266.17,266.17-266.17,71.25,0,138.19,27.79,188.5,78.26l.35.35,24.43-24.12-.35-.36Z"/><path class="cls-1" d="M494.3,482.95l-.49.5c-2.42,2.55-4.94,5.1-7.71,7.81l-94.53,95.68,1.96-.64c47.18-15.35,90.28-42.54,124.65-78.64l.33-.35-24.21-24.36Z"/><path class="cls-1" d="M425.2,175.56c-33.33-33.26-77.61-51.58-124.7-51.58-97.33,0-176.52,79.19-176.52,176.52,0,43.72,16.11,85.67,45.35,118.12,29.03,32.21,68.64,52.56,111.54,57.31l.24.03,39.17-38.85-2.03.67-.04-.04-.07.08c-3.19,1.04-6.05,1.02-12.23.97-1.58-.01-3.36-.03-5.41-.02-75.9,0-137.92-62.03-138.27-138.27-.28-62.03,32.84-113.58,86.43-134.54,52.22-20.43,110.89-6.53,149.71,35.4l-.39.39.7.71.37-.36.24.27,25.9-26.08.36-.35-.36-.36Z"/><path class="cls-1" d="M469.15,132.17c-45.03-45.11-104.92-69.96-168.65-69.96s-123.49,24.79-168.49,69.79-69.79,104.85-69.79,168.49c0,51.65,16.25,100.79,47,142.11,29.72,39.94,72.1,70.16,119.32,85.1l.29.09,28.97-28.73-.9-.2c-92.41-20.22-159.48-103.65-159.48-198.38,0-111.99,91.11-203.09,203.09-203.09,54.25,0,105.25,21.13,143.62,59.49l.35.35,25.04-24.72-.36-.36Z"/><path class="cls-1" d="M430.71,418.97l-26.3-26.46-.37-.38-194.05,194.99.79.25c13.5,4.22,27.51,7.51,41.65,9.78l.25.04,166.59-166.1c3.91-3.56,7.74-7.38,11.37-11.33l.54-.44-.46-.35Z"/><path class="cls-1" d="M450.16,438.54l-.38-.35-126.16,127.59-34.6,34.99,1.14.04c3.96.13,7.24.2,10.34.2,12.78,0,25.65-.81,38.25-2.41l.17-.02,124.31-124.02c3.77-3.52,7.46-7.21,10.96-10.94l.43-.44-24.47-24.62Z"/></svg>